<svg width="62" height="62" viewBox="0 0 62 62" fill="none" xmlns="http://www.w3.org/2000/svg">
<g clip-path="url(#clip0_84:2314)">
<path d="M60.1836 7.38672H1.81641C0.799098 7.38672 0 8.18582 0 9.20312V50.9805L23.7344 34.6328L38.2656 52.7969L45.5312 45.5312L61.4914 54.1047C61.7822 53.7414 62 53.3055 62 52.7969V9.20312C62 8.18582 61.2009 7.38672 60.1836 7.38672Z" fill="url(#paint0_linear_84:2314)"/>
<path d="M41.8984 29.1836C44.9033 29.1836 47.3477 26.7392 47.3477 23.7344C47.3477 20.7296 44.9033 18.2852 41.8984 18.2852C38.8936 18.2852 36.4492 20.7296 36.4492 23.7344C36.4492 26.7392 38.8936 29.1836 41.8984 29.1836ZM46.8157 39.5499C46.1063 38.8406 44.9563 38.8406 44.2469 39.5499L38.2656 45.5312L25.0021 28.9518C24.3258 28.1065 23.0648 28.0366 22.2993 28.8021L0 50.9805V52.7969C0 53.8139 0.799098 54.6133 1.81641 54.6133H60.1836C60.6922 54.6133 61.1281 54.3953 61.4914 54.1047L46.8157 39.5499Z" fill="url(#paint1_linear_84:2314)"/>
</g>
<defs>
<linearGradient id="paint0_linear_84:2314" x1="31" y1="54.1047" x2="31" y2="7.38672" gradientUnits="userSpaceOnUse">
<stop stop-color="#FFC2CC"/>
<stop offset="1" stop-color="#FFF2F4"/>
</linearGradient>
<linearGradient id="paint1_linear_84:2314" x1="30.7457" y1="54.6133" x2="30.7457" y2="18.2852" gradientUnits="userSpaceOnUse">
<stop stop-color="#FD3A84"/>
<stop offset="1" stop-color="#FFA68D"/>
</linearGradient>
<clipPath id="clip0_84:2314">
<rect width="62" height="62" fill="white"/>
</clipPath>
</defs>
</svg>
