<svg width="14" height="23" viewBox="0 0 14 23" fill="none" xmlns="http://www.w3.org/2000/svg">
<path d="M13.6382 10.7353L0.379412 0.0518182C0.344766 0.0236796 0.30313 0.00619269 0.259285 0.00136556C0.21544 -0.00346157 0.171164 0.00456688 0.131542 0.0245291C0.091921 0.0444912 0.0585611 0.0755775 0.0352933 0.114218C0.0120254 0.152858 -0.000206505 0.197485 2.63771e-06 0.242973V2.58841C2.63771e-06 2.73709 0.0676494 2.8797 0.179413 2.97072L10.7676 11.4999L0.179413 20.029C0.0647083 20.12 2.63771e-06 20.2627 2.63771e-06 20.4113V22.7568C2.63771e-06 22.9601 0.226472 23.0723 0.379412 22.9479L13.6382 12.2645C13.7508 12.1738 13.842 12.0578 13.9047 11.9253C13.9674 11.7928 14 11.6473 14 11.4999C14 11.3524 13.9674 11.2069 13.9047 11.0744C13.842 10.9419 13.7508 10.8259 13.6382 10.7353Z" fill="white"/>
</svg>
