<svg xmlns="http://www.w3.org/2000/svg" viewBox="0 0 258.75 72.37"><title>logo</title><g id="Слой_2" data-name="Слой 2"><g id="Layer_1" data-name="Layer 1"><path d="M27.13,8.66H10v-5A3.7,3.7,0,0,1,13.71,0H30.83V5A3.7,3.7,0,0,1,27.13,8.66Z" fill="#f6c502"/><path d="M20.58,14.69C8.44,14.69,0,23.56,0,35.12S8.37,55.55,20.86,55.55c8.44,0,16.6-4,19.3-13.69H27.74c-.92,2.84-3.62,4.4-6.88,4.4-4.19,0-8-2.55-8.59-8.59H40.73C41.93,24.83,33.49,14.69,20.58,14.69ZM12.63,30.37c1-3.76,3.55-6.39,7.87-6.39s6.89,2.63,7.67,6.39Z"/><path d="M45.12,0H57.19V54.63H45.12Z"/><path d="M103.94,35.12c0,12.06-7.66,20.43-17.59,20.43a13.76,13.76,0,0,1-11.07-5.1V72.37H63.22V15.61H75.28V20a13.56,13.56,0,0,1,11.14-5.32C96.14,14.69,103.94,23,103.94,35.12Zm-12.2,0c0-5.39-3.55-8.94-8.23-8.94s-8.23,3.55-8.23,8.94,3.55,8.94,8.23,8.94S91.74,40.58,91.74,35.12Z"/><path d="M149.07,35.12a20.44,20.44,0,0,1-40.87,0,20.44,20.44,0,0,1,40.87,0Zm-28.67,0c0,5.46,3.62,8.94,8.23,8.94s8.23-3.48,8.23-8.94-3.54-8.94-8.23-8.94S120.4,29.73,120.4,35.12Z"/><path d="M179.65,15.61V27h-2.42c-5.67,0-11.14,1.92-11.14,10.79V54.63H154v-39h12.06v6c2.42-4.75,6.39-6,11.36-6Z"/><path d="M216.26,52.15c-2.2,1.56-7.31,3.4-12.21,3.4-7.52,0-14.9-4.39-14.9-16V27h-6.67V15.61h6.67v-8L201.21,5V15.61h13.13v7.65a3.7,3.7,0,0,1-3.7,3.7h-9.43V38.81c0,3.76,1.92,5.53,5,5.53,2.13,0,4.68-.85,8-1.91Z"/><path d="M258.75,15.61l-.07,39H246.62V50.45a13.52,13.52,0,0,1-11,5.1c-9.93,0-17.59-8.37-17.59-20.43s7.8-20.43,17.52-20.43A13.56,13.56,0,0,1,246.69,20v-4.4ZM246.69,35.12c0-5.39-3.54-8.94-8.23-8.94s-8.23,3.55-8.23,8.94,3.62,8.94,8.23,8.94S246.69,40.58,246.69,35.12Z"/></g></g></svg>