<svg width="200" height="41" viewBox="0 0 200 41" fill="none" xmlns="http://www.w3.org/2000/svg">
<g clip-path="url(#clip0_61:30)">
<path d="M72.6019 11.8225C72.6019 11.5383 72.7304 11.3962 72.9812 11.3962H74.2508C74.339 11.3982 74.4251 11.4227 74.5016 11.4672C74.6007 11.5281 74.6772 11.6195 74.7196 11.7278L80.4083 23.0056L80.7726 24.0997L80.6591 22.9961L80.5689 11.8225C80.5641 11.7119 80.5976 11.6031 80.6639 11.5146C80.7001 11.4735 80.7459 11.4414 80.7972 11.4209C80.8477 11.4003 80.9031 11.3919 80.9577 11.3962H82.2458C82.2937 11.3944 82.3415 11.4022 82.3866 11.4193C82.431 11.4364 82.472 11.4624 82.5062 11.4956C82.5451 11.5375 82.5738 11.5869 82.5923 11.6408C82.61 11.6947 82.6162 11.7517 82.6107 11.8083V27.3585C82.6107 27.6379 82.4782 27.7754 82.2082 27.7754H80.9905C80.8983 27.7725 80.8081 27.7499 80.7254 27.709C80.6243 27.6533 80.5464 27.5623 80.5074 27.4532L74.8235 16.3365L74.421 15.2091L74.5488 16.3459L74.615 27.349C74.615 27.6332 74.4968 27.7754 74.2508 27.7754H72.9621C72.7113 27.7754 72.5835 27.6332 72.5835 27.349L72.6019 11.8225Z" fill="#0F1826"/>
<path d="M96.3752 27.3395C96.4025 27.3871 96.4169 27.441 96.4169 27.4959C96.4169 27.5508 96.4025 27.6046 96.3752 27.6522C96.3465 27.6926 96.3075 27.7251 96.2631 27.7467C96.218 27.7682 96.1688 27.7781 96.1189 27.7753H94.6177C94.5295 27.7739 94.4427 27.7495 94.3669 27.7043C94.3197 27.6757 94.2794 27.637 94.2493 27.5912C94.2193 27.5454 94.1995 27.4934 94.1913 27.439L93.4239 24.4218H88.4601L87.7023 27.439C87.6955 27.4933 87.677 27.5454 87.6477 27.5913C87.6183 27.6373 87.5786 27.6759 87.5315 27.7043C87.4556 27.7489 87.3689 27.7733 87.2807 27.7753H85.7979C85.7494 27.7786 85.7002 27.769 85.6557 27.7473C85.612 27.7258 85.5744 27.6929 85.5471 27.6522C85.5191 27.6054 85.5027 27.5529 85.4986 27.4986C85.4945 27.4444 85.5027 27.3899 85.5232 27.3395L89.8808 11.7419C89.9027 11.6339 89.9614 11.5367 90.0468 11.4672C90.1165 11.4119 90.204 11.3834 90.2928 11.3867H91.5673C91.6575 11.3849 91.7456 11.4133 91.818 11.4672C91.9076 11.5352 91.9697 11.6325 91.9937 11.7419L96.3752 27.3395ZM88.9576 22.4893H92.9408L91.1265 15.2896L90.9564 14.0723L90.7808 15.2896L88.9576 22.4893Z" fill="#0F1826"/>
<path d="M103.447 11.8084C103.439 11.7572 103.441 11.7048 103.456 11.655C103.469 11.605 103.495 11.5588 103.528 11.5195C103.562 11.4803 103.604 11.4489 103.652 11.4276C103.699 11.4063 103.75 11.3956 103.802 11.3963H105.181C105.239 11.3885 105.299 11.3952 105.354 11.4159C105.409 11.4365 105.459 11.4705 105.498 11.5147C105.56 11.617 105.59 11.736 105.583 11.8557V23.9956C105.592 24.5672 105.484 25.1345 105.266 25.6629C105.069 26.14 104.777 26.572 104.408 26.9323C104.041 27.2837 103.608 27.5589 103.134 27.7423C102.632 27.9342 102.099 28.0306 101.562 28.0265C100.974 28.0276 100.391 27.9134 99.8471 27.6902C99.3353 27.4891 98.8741 27.1769 98.4969 26.776C98.4156 26.6906 98.3527 26.5889 98.3124 26.4776C98.2905 26.4177 98.2871 26.3524 98.3035 26.2906C98.3192 26.2287 98.3541 26.1734 98.4026 26.1318L99.1508 25.2603C99.1877 25.2129 99.2362 25.1761 99.2923 25.1537C99.3483 25.1312 99.4084 25.1239 99.4679 25.1324C99.5759 25.1606 99.6729 25.2199 99.7474 25.303C99.9558 25.4933 100.19 25.6528 100.444 25.7766C100.759 25.9294 101.107 26.0057 101.458 25.9992C101.735 26.0015 102.009 25.945 102.263 25.8334C102.504 25.7223 102.719 25.5608 102.893 25.3597C103.079 25.1487 103.221 24.9022 103.31 24.6351C103.413 24.3301 103.463 24.0096 103.457 23.6878L103.447 11.8084Z" fill="#0F1826"/>
<path d="M108.743 16.6776C108.737 15.9504 108.845 15.2266 109.06 14.532C109.259 13.8846 109.58 13.2816 110.008 12.7558C110.441 12.2418 110.983 11.8308 111.594 11.5526C112.288 11.2587 113.034 11.1073 113.787 11.1073C114.541 11.1073 115.286 11.2587 115.981 11.5526C116.594 11.8314 117.138 12.2403 117.577 12.7511C118.016 13.2708 118.348 13.873 118.553 14.5225C118.773 15.2161 118.884 15.9402 118.879 16.6682V22.5132C118.883 23.2426 118.773 23.9682 118.553 24.6635C118.349 25.3109 118.019 25.9114 117.582 26.4303C117.144 26.9431 116.6 27.3524 115.985 27.6287C115.296 27.9377 114.547 28.0898 113.792 28.0739C113.04 28.0905 112.294 27.9383 111.609 27.6287C111 27.3497 110.46 26.9406 110.027 26.4303C109.589 25.9114 109.259 25.3109 109.056 24.6635C108.835 23.9682 108.724 23.2426 108.728 22.5132L108.743 16.6776ZM110.865 22.6505C110.863 23.1026 110.927 23.5525 111.054 23.9862C111.17 24.3767 111.361 24.7406 111.618 25.0567C111.868 25.361 112.181 25.6068 112.537 25.7767C112.938 25.9516 113.371 26.0418 113.809 26.0418C114.246 26.0418 114.68 25.9516 115.081 25.7767C115.445 25.6089 115.769 25.3631 116.028 25.0567C116.285 24.742 116.478 24.3799 116.596 23.9909C116.723 23.5605 116.788 23.1137 116.786 22.6647V16.5071C116.789 16.0621 116.721 15.6193 116.587 15.1951C116.468 14.8032 116.276 14.4381 116.018 14.1199C115.765 13.8106 115.443 13.5628 115.081 13.3952C114.682 13.2078 114.246 13.1153 113.806 13.1252C113.37 13.118 112.938 13.2086 112.541 13.3905C112.184 13.5604 111.868 13.808 111.618 14.1152C111.36 14.4341 111.169 14.8012 111.054 15.1951C110.927 15.6225 110.864 16.0661 110.865 16.5119V22.6505Z" fill="#0F1826"/>
<path d="M120.845 11.7846C120.837 11.6796 120.871 11.5757 120.94 11.4957C120.972 11.4629 121.012 11.4372 121.055 11.4201C121.098 11.403 121.145 11.3948 121.191 11.3963H130.399C130.443 11.3954 130.487 11.4038 130.527 11.4209C130.568 11.4381 130.605 11.4635 130.635 11.4957C130.671 11.5345 130.698 11.5802 130.715 11.6298C130.732 11.6795 130.739 11.7322 130.735 11.7846V13.0635C130.74 13.1145 130.734 13.166 130.716 13.2143C130.699 13.2626 130.672 13.3065 130.635 13.343C130.571 13.4002 130.486 13.4306 130.399 13.4282H126.851V27.3822C126.86 27.4881 126.828 27.5933 126.761 27.6759C126.73 27.7089 126.693 27.735 126.651 27.7521C126.609 27.7693 126.565 27.7772 126.52 27.7754H125.07C125.024 27.7776 124.977 27.77 124.934 27.7528C124.891 27.7357 124.852 27.7094 124.819 27.6759C124.751 27.594 124.716 27.4887 124.725 27.3822V13.4282H121.191C121.1 13.4315 121.01 13.4011 120.94 13.343C120.905 13.3054 120.879 13.2612 120.863 13.2131C120.847 13.165 120.841 13.1141 120.845 13.0635V11.7846Z" fill="#0F1826"/>
<path d="M138.252 11.7847C138.248 11.7323 138.255 11.6796 138.272 11.6299C138.289 11.5802 138.316 11.5345 138.352 11.4958C138.383 11.4629 138.422 11.437 138.465 11.4199C138.507 11.4027 138.552 11.3947 138.598 11.3963H147.806C147.85 11.3955 147.894 11.4039 147.935 11.421C147.976 11.4381 148.012 11.4636 148.043 11.4958C148.078 11.5345 148.105 11.5802 148.123 11.6299C148.14 11.6796 148.146 11.7323 148.142 11.7847V13.0636C148.147 13.1146 148.141 13.1661 148.124 13.2144C148.106 13.2626 148.078 13.3066 148.043 13.3431C147.977 13.4003 147.893 13.4307 147.806 13.4283H144.258V27.3823C144.267 27.4882 144.235 27.5934 144.168 27.676C144.138 27.7091 144.1 27.735 144.058 27.7522C144.017 27.7694 143.972 27.7773 143.926 27.7755H142.458C142.412 27.7777 142.365 27.7701 142.322 27.7529C142.279 27.7358 142.239 27.7095 142.207 27.676C142.14 27.5934 142.108 27.4882 142.117 27.3823V13.4283H138.579C138.531 13.4323 138.482 13.4255 138.437 13.4083C138.392 13.391 138.352 13.364 138.318 13.3289C138.286 13.2939 138.26 13.2519 138.246 13.206C138.231 13.1601 138.227 13.1114 138.233 13.0636L138.252 11.7847Z" fill="#0F1826"/>
<path d="M159.605 27.3395C159.632 27.3871 159.646 27.441 159.646 27.4959C159.646 27.5508 159.632 27.6046 159.605 27.6522C159.576 27.6926 159.537 27.7251 159.493 27.7467C159.448 27.7682 159.398 27.7781 159.349 27.7753H157.866C157.778 27.7739 157.691 27.7495 157.616 27.7043C157.568 27.6757 157.528 27.637 157.498 27.5912C157.468 27.5454 157.448 27.4934 157.44 27.439L156.668 24.4218H151.69L150.932 27.439C150.926 27.4933 150.907 27.5454 150.877 27.5913C150.848 27.6373 150.808 27.6759 150.762 27.7043C150.685 27.7489 150.598 27.7733 150.51 27.7753H149.028C148.979 27.7786 148.93 27.769 148.886 27.7473C148.842 27.7258 148.804 27.6929 148.777 27.6522C148.749 27.6054 148.732 27.5529 148.728 27.4986C148.724 27.4444 148.732 27.3899 148.753 27.3395L153.129 11.7419C153.151 11.6339 153.21 11.5367 153.295 11.4672C153.365 11.4119 153.453 11.3834 153.541 11.3867H154.816C154.906 11.3849 154.994 11.4133 155.067 11.4672C155.156 11.5352 155.218 11.6325 155.242 11.7419L159.605 27.3395ZM152.187 22.4893H156.194L154.357 15.2896L154.186 14.0723L154.011 15.2896L152.187 22.4893Z" fill="#0F1826"/>
<path d="M162.182 11.9032C162.173 11.7769 162.212 11.652 162.29 11.5527C162.331 11.5064 162.381 11.4702 162.438 11.4471C162.495 11.4241 162.556 11.4148 162.617 11.4201H164.085C164.379 11.4201 164.521 11.5811 164.521 11.8938V13.8689C164.529 14.084 164.487 14.2981 164.398 14.4941C164.319 14.6611 164.202 14.8071 164.057 14.9204C163.917 15.0331 163.756 15.1168 163.583 15.1667C163.401 15.2218 163.211 15.2489 163.019 15.2472C162.783 15.2472 162.665 15.1525 162.665 14.963V14.4894C162.661 14.4505 162.67 14.4114 162.688 14.377C162.706 14.3426 162.734 14.3141 162.769 14.2952C162.843 14.2565 162.926 14.237 163.011 14.2383C163.051 14.2427 163.093 14.2377 163.131 14.2238C163.17 14.2098 163.205 14.1872 163.233 14.1578C163.28 14.0902 163.304 14.0084 163.299 13.9257C163.306 13.8524 163.287 13.7789 163.247 13.7173C163.222 13.6933 163.192 13.675 163.16 13.6635C163.127 13.6521 163.092 13.6478 163.058 13.651H162.584C162.482 13.6535 162.384 13.6162 162.309 13.5468C162.268 13.5027 162.236 13.4504 162.217 13.3932C162.197 13.3361 162.19 13.2754 162.195 13.2153L162.182 11.9032Z" fill="#0F1826"/>
<path d="M168.547 11.8224C168.547 11.5382 168.671 11.3961 168.926 11.3961H170.29C170.541 11.3961 170.669 11.5382 170.669 11.8224V25.7527H176.036C176.128 25.7488 176.219 25.7792 176.291 25.838C176.328 25.8752 176.355 25.9199 176.372 25.969C176.39 26.0181 176.396 26.0704 176.391 26.1222V27.3821C176.395 27.4353 176.388 27.4887 176.371 27.5392C176.354 27.5897 176.327 27.6361 176.291 27.6758C176.258 27.709 176.218 27.7349 176.174 27.752C176.13 27.7691 176.083 27.777 176.036 27.7752H168.931C168.675 27.7752 168.552 27.6332 168.552 27.349L168.547 11.8224Z" fill="#0F1826"/>
<path d="M179.792 11.8224C179.792 11.5382 179.92 11.3961 180.181 11.3961H181.549C181.795 11.3961 181.919 11.5382 181.919 11.8224V27.349C181.919 27.6332 181.795 27.7752 181.549 27.7752H180.181C179.92 27.7752 179.792 27.6332 179.792 27.349V11.8224Z" fill="#0F1826"/>
<path d="M188.9 16.4171L188.488 14.9203L188.625 16.4029L188.716 27.3586C188.716 27.6381 188.616 27.7755 188.374 27.7755H187.029C186.981 27.7814 186.932 27.7738 186.888 27.7537C186.843 27.7337 186.806 27.7019 186.778 27.6618C186.726 27.566 186.702 27.4579 186.707 27.3491V11.7657C186.709 11.6644 186.744 11.5664 186.806 11.4863C186.837 11.4521 186.875 11.4254 186.918 11.4081C186.961 11.3909 187.007 11.3836 187.053 11.3868H188.673C188.713 11.3828 188.753 11.3889 188.791 11.4047C188.828 11.4204 188.86 11.4452 188.886 11.4768C188.934 11.5564 188.973 11.6405 189.004 11.7279L192.794 21.7457L192.973 22.6931L193.158 21.7457L196.948 11.7421C196.976 11.6539 197.016 11.5695 197.066 11.491C197.091 11.4594 197.124 11.4346 197.161 11.4189C197.199 11.4032 197.239 11.397 197.279 11.401H198.875C198.921 11.3978 198.967 11.4051 199.01 11.4224C199.052 11.4396 199.091 11.4663 199.121 11.5005C199.184 11.5806 199.218 11.6786 199.221 11.78V27.3634C199.221 27.6476 199.131 27.7897 198.913 27.7897H197.563C197.336 27.7897 197.222 27.6523 197.222 27.3729L197.326 16.4313L197.449 14.9819L197.061 16.4313L193.845 24.8956C193.821 24.9953 193.774 25.0878 193.707 25.1656C193.646 25.2148 193.569 25.24 193.49 25.2366H192.453C192.378 25.2392 192.305 25.2139 192.249 25.1656C192.18 25.089 192.133 24.996 192.112 24.8956L188.9 16.4171Z" fill="#0F1826"/>
<path d="M60.9411 12.301L59.3212 12.5804C56.1931 13.1286 53.1208 13.9577 50.1416 15.0577V6.19548L49.2795 6.58388C47.3139 7.46487 45.4524 8.38853 43.6809 9.35476L43.6194 0.0710605L42.672 0.672617C38.1875 3.53041 34.0084 6.84133 30.2005 10.5531C26.3963 6.98114 22.3443 3.68252 18.0749 0.682071L17.1038 0V9.62475C15.1761 8.5401 13.1914 7.55015 11.1689 6.66439L10.3069 6.29021L10.3495 14.5319C7.47047 13.5316 4.48559 12.8672 1.45413 12.5519L0 12.4052L11.6331 26.9418L11.581 16.2987C13.4759 17.0421 15.3207 17.9076 17.1038 18.8895V28.1022L17.227 28.2633C20.6468 32.8672 29.6463 40.3605 30.0158 40.6779L30.4042 41L30.7974 40.6779C31.181 40.3652 40.1853 32.9525 43.5862 28.1686L43.7898 27.8228L43.733 19.2448C45.3055 18.4206 47.0486 17.6012 48.9053 16.8433V26.9891L60.9411 12.301ZM50.1416 16.3649C52.6597 15.4144 55.2472 14.659 57.8812 14.1056L50.1416 23.5788V16.3649ZM2.77565 13.954C5.34797 14.3308 7.87583 14.9655 10.3211 15.8487L10.3589 23.4272L2.77565 13.954ZM42.3878 2.31146V10.0653C39.7187 11.5943 37.1651 13.3167 34.7477 15.2187C34.2267 14.6503 33.6962 14.0819 33.1467 13.5182C32.4646 12.8078 31.7589 12.0973 31.0342 11.3963C34.5236 8.01079 38.3304 4.96852 42.4021 2.31146H42.3878ZM21.7789 20.3105C20.6326 19.5369 19.4721 18.8169 18.2975 18.1506V11.761C20.5789 13.1419 22.7772 14.6555 24.8813 16.2939C23.8172 17.598 22.7878 18.9417 21.7931 20.3247L21.7789 20.3105ZM25.8334 17.0375C27.0302 18.0038 28.1954 19.0112 29.329 20.0595C28.2364 21.1615 27.166 22.322 26.1176 23.5409C25.1466 22.7452 24.0287 21.8831 22.802 21.002C23.7745 19.6474 24.7898 18.3306 25.8476 17.0518L25.8334 17.0375ZM33.8098 15.9718C32.5688 16.9886 31.3673 18.0638 30.2053 19.1974C29.0448 18.1222 27.837 17.0897 26.6244 16.0997C27.7612 14.7672 28.947 13.4788 30.1816 12.2346C31.4573 13.482 32.6715 14.7324 33.824 15.986L33.8098 15.9718ZM33.6251 24.3888C32.4542 25.3173 31.3317 26.3054 30.2621 27.3491C29.6937 26.7571 28.609 25.6676 27.0554 24.3319C28.088 23.1351 29.1443 21.992 30.2242 20.9026C31.4052 22.0299 32.5436 23.1967 33.6393 24.4029L33.6251 24.3888ZM26.2597 25.2697C27.502 26.3228 28.6803 27.4489 29.7885 28.6422L30.2337 29.1443L30.7074 28.6706C31.8872 27.4777 33.14 26.3592 34.4587 25.3219C35.2261 26.1981 35.9745 27.0981 36.7039 28.0122L30.4374 33.9378L24.0762 28.0786C24.8008 27.0981 25.535 26.1839 26.2739 25.2839L26.2597 25.2697ZM31.1005 20.0595C32.242 18.9512 33.4167 17.9044 34.6293 16.9049C35.8734 18.3164 37.0292 19.7374 38.0964 21.1678L37.7602 21.3952C36.576 22.1815 35.5197 22.9488 34.5914 23.664C33.4736 22.4104 32.3146 21.2073 31.1147 20.0547L31.1005 20.0595ZM35.5766 16.1423C37.7467 14.4392 40.0321 12.8881 42.4162 11.5005V18.577C41.2226 19.2259 40.1237 19.8748 39.129 20.5047C38.046 19.0427 36.8665 17.587 35.5908 16.1376L35.5766 16.1423ZM18.2975 2.4062C22.1604 5.17302 25.8376 8.19043 29.3053 11.4389C28.6659 12.083 28.0359 12.7367 27.4107 13.3998C26.7854 14.063 26.2313 14.7119 25.6581 15.3845C23.3111 13.5531 20.8476 11.876 18.2833 10.3637L18.2975 2.4062ZM13.3145 15.7161C12.7225 15.465 12.1352 15.2424 11.5431 15.0056L11.5241 8.18483C13.4188 9.04692 15.2724 9.99423 17.0849 11.0268V17.4733C15.8439 16.8244 14.5698 16.2371 13.3288 15.6876L13.3145 15.7161ZM21.0731 21.3526C20.1069 22.7514 19.1816 24.1851 18.2975 25.6534V19.5811C19.3064 20.1684 20.2537 20.7558 21.0873 21.3242L21.0731 21.3526ZM30.3853 39.4322C28.6422 37.9638 21.5042 31.8537 18.4206 27.8796C19.5669 25.8587 20.7858 23.9151 22.0773 22.0488C23.2851 22.9014 24.3746 23.7445 25.3219 24.5261C24.4535 25.5681 23.5961 26.656 22.7499 27.7896L22.4183 28.2349L30.4327 35.6429L38.3428 28.1638L38.0017 27.728C37.1649 26.6513 36.3013 25.6061 35.4108 24.5924C36.3013 23.9056 37.3054 23.1714 38.4375 22.423L38.8212 22.1673C40.1188 23.9644 41.3006 25.8422 42.3594 27.7896C39.3043 31.8679 32.1521 37.9449 30.3995 39.4037L30.3853 39.4322ZM42.4257 25.4213C41.6489 24.1204 40.79 22.8162 39.849 21.5089C40.64 21.0115 41.4973 20.5 42.4162 19.9885L42.4257 25.4213ZM43.7188 17.8996L43.6762 10.7948C45.334 9.84738 47.0723 8.98535 48.8864 8.13748V15.5266C47.0534 16.2607 45.3198 17.0565 43.733 17.8712L43.7188 17.8996Z" fill="#AE8D5E"/>
</g>
<defs>
<clipPath id="clip0_61:30">
<rect width="199.533" height="41" fill="white"/>
</clipPath>
</defs>
</svg>
