<svg width="94" height="35" viewBox="0 0 94 35" fill="none" xmlns="http://www.w3.org/2000/svg">
<path d="M9.17484 0.123319H0.558945V21.98C0.558945 29.5864 6.33418 34.5869 15.1614 34.5869C23.9651 34.5869 29.7403 29.5864 29.7403 21.98V0.123319H21.1244V21.0644C21.1244 25.0085 18.988 27.3561 15.1614 27.3561C11.3112 27.3561 9.17484 25.0085 9.17484 21.0644V0.123319Z" fill="#FB574C"/>
<path d="M33.0942 28.8811C33.1432 32.31 35.9231 34.3062 40.4296 34.3062C44.9852 34.3062 47.8875 32.0651 47.8875 28.5505C47.8875 25.7584 46.32 24.1786 42.8299 23.5051L40.5399 23.0765C38.6907 22.6969 37.907 22.1703 37.907 21.2151C37.907 20.1374 38.9479 19.4271 40.5154 19.4271C42.1319 19.4271 43.3197 20.1987 43.4054 21.4845H47.5446C47.4956 18.1658 44.8872 16.0227 40.4664 16.0227C36.3762 16.0227 33.4371 18.227 33.4371 21.6559C33.4371 24.3378 35.1148 26.1013 38.3723 26.7258L40.6868 27.1789C42.6952 27.5953 43.4422 28.0729 43.4422 29.0526C43.4422 30.118 42.3033 30.9017 40.5521 30.9017C38.8866 30.9017 37.5273 30.0935 37.3681 28.8811H33.0942ZM61.0521 34H65.828L59.8887 16.3289H54.3902L48.4508 34H53.0309L54.1575 30.118H59.9377L61.0521 34ZM56.9986 20.0762H57.0966L59.056 26.885H55.027L56.9986 20.0762ZM79.3355 30.3752H72.0246V16.3289H67.5303V34H79.3355V30.3752ZM93.5042 30.3752H85.8871V26.7748H93.0511V23.4684H85.8871V19.9537H93.5042V16.3289H81.3928V34H93.5042V30.3752Z" fill="#505050"/>
</svg>